<svg xmlns="http://www.w3.org/2000/svg" fill-rule="evenodd" stroke-linejoin="round" stroke-miterlimit="2" clip-rule="evenodd" viewBox="0 0 140 150"><g fill="#481414"><path d="M20 140h20v10H20zM100.00003 140h20v10h-20zM20 30V10h10V0h20v10H40v10H30v10zM100.00003 10h-10V0h20v10h10v20h-10V20h-10zM50.00003 10h10v20h-10zM80.00003 10h10v20h-10z"/></g><path fill="#ff6d1f" d="M20 130h30v10H20zM90 130h30v10H90zM60 100v10H50v-10zm20 0h10v10H80zM20 50V30h10v10h20V30h40v10h20V30h10v20H80v50H60V50z"/><path fill="#ffa16b" d="M40 30h10v10H40zM90 30h10v10H90z"/><path fill="#343333" d="M60 100h20v10H60z"/><path fill="#fff8b7" d="M50 110h40v10H50z"/><path fill="#ffd9a3" d="M30 40V20h10V10h10v20H40v10zM90 30V10h10v10h10v20h-10V30zM0 100V80h10V70h10V50h40v50H50v20h40v-20H80V50h40v20h10v10h10v20h-10v20h-10v10H20v-10H10v-20z"/><path fill="#f7f7f7" d="M30 80V60h20v10H40v10zM100 70H90V60h20v20h-10z"/><path fill="#343333" d="M50 90H30V80h10V70h10zM90 90V70h10v10h10v10z"/></svg>